<mxfile host="app.diagrams.net" modified="2020-11-22T08:49:17.674Z" agent="5.0 (Windows NT 10.0; Win64; x64) AppleWebKit/537.36 (KHTML, like Gecko) Chrome/87.0.4280.66 Safari/537.36 Edg/87.0.664.41" etag="KENtp_vifiHU1i7d3EsP" version="13.10.0" type="github">
  <diagram id="oDo7kxzeQm5iP3tuwgTI" name="Page-1">
    <mxGraphModel dx="811" dy="2455" grid="1" gridSize="10" guides="1" tooltips="1" connect="1" arrows="1" fold="1" page="1" pageScale="1" pageWidth="827" pageHeight="1169" math="0" shadow="0">
      <root>
        <mxCell id="0" />
        <mxCell id="1" parent="0" />
        <mxCell id="BxB7EzJWPoqpXeamAMvf-4" style="edgeStyle=orthogonalEdgeStyle;rounded=0;orthogonalLoop=1;jettySize=auto;html=1;entryX=0.5;entryY=0;entryDx=0;entryDy=0;strokeColor=#FF3333;" edge="1" parent="1" source="qjSV56x-90p1cfjG59y1-2" target="BxB7EzJWPoqpXeamAMvf-1">
          <mxGeometry relative="1" as="geometry" />
        </mxCell>
        <mxCell id="qjSV56x-90p1cfjG59y1-2" value="" style="ellipse;fillColor=#000000;strokeColor=none;" parent="1" vertex="1">
          <mxGeometry x="367.5" y="-210" width="30" height="30" as="geometry" />
        </mxCell>
        <mxCell id="qjSV56x-90p1cfjG59y1-8" value="&lt;font style=&quot;font-size: 15px&quot;&gt;Actor nhập thông tin trong ô Tìm kiếm sách&lt;/font&gt;" style="rounded=1;whiteSpace=wrap;html=1;arcSize=40;fontColor=#000000;fillColor=#ffffc0;strokeColor=#ff0000;" parent="1" vertex="1">
          <mxGeometry x="270" y="140" width="200" height="50" as="geometry" />
        </mxCell>
        <mxCell id="qjSV56x-90p1cfjG59y1-9" value="" style="edgeStyle=orthogonalEdgeStyle;html=1;verticalAlign=bottom;endArrow=open;endSize=8;strokeColor=#ff0000;exitX=0.5;exitY=1;exitDx=0;exitDy=0;" parent="1" source="qjSV56x-90p1cfjG59y1-8" edge="1">
          <mxGeometry relative="1" as="geometry">
            <mxPoint x="370" y="210" as="targetPoint" />
          </mxGeometry>
        </mxCell>
        <mxCell id="qjSV56x-90p1cfjG59y1-67" style="edgeStyle=none;rounded=1;orthogonalLoop=1;jettySize=auto;html=1;strokeColor=#FF0000;" parent="1" source="qjSV56x-90p1cfjG59y1-11" edge="1">
          <mxGeometry relative="1" as="geometry">
            <mxPoint x="370" y="470" as="targetPoint" />
          </mxGeometry>
        </mxCell>
        <mxCell id="qjSV56x-90p1cfjG59y1-11" value="&lt;font style=&quot;font-size: 15px&quot;&gt;Hệ thống hiển thị danh sách sách trong kho&amp;nbsp;&lt;/font&gt;" style="rounded=1;whiteSpace=wrap;html=1;arcSize=40;fontColor=#000000;fillColor=#ffffc0;strokeColor=#ff0000;" parent="1" vertex="1">
          <mxGeometry x="265" y="360" width="210" height="50" as="geometry" />
        </mxCell>
        <mxCell id="qjSV56x-90p1cfjG59y1-18" value="" style="rhombus;whiteSpace=wrap;html=1;fillColor=#ffffc0;strokeColor=#ff0000;" parent="1" vertex="1">
          <mxGeometry x="332" y="210" width="76" height="90" as="geometry" />
        </mxCell>
        <mxCell id="qjSV56x-90p1cfjG59y1-19" value="no" style="edgeStyle=orthogonalEdgeStyle;html=1;align=left;verticalAlign=bottom;endArrow=open;endSize=8;strokeColor=#ff0000;exitX=1;exitY=0.5;exitDx=0;exitDy=0;" parent="1" source="qjSV56x-90p1cfjG59y1-18" edge="1">
          <mxGeometry x="-1" relative="1" as="geometry">
            <mxPoint x="470" y="165" as="targetPoint" />
            <Array as="points">
              <mxPoint x="560" y="255" />
              <mxPoint x="560" y="165" />
            </Array>
          </mxGeometry>
        </mxCell>
        <mxCell id="qjSV56x-90p1cfjG59y1-20" value="yes" style="edgeStyle=orthogonalEdgeStyle;html=1;align=left;verticalAlign=top;endArrow=open;endSize=8;strokeColor=#ff0000;" parent="1" source="qjSV56x-90p1cfjG59y1-18" edge="1">
          <mxGeometry x="-1" relative="1" as="geometry">
            <mxPoint x="370" y="360" as="targetPoint" />
            <Array as="points">
              <mxPoint x="370" y="330" />
              <mxPoint x="370" y="330" />
            </Array>
          </mxGeometry>
        </mxCell>
        <mxCell id="qjSV56x-90p1cfjG59y1-29" value="Hệ thống tự động tạo phiếu hóa đơn" style="rounded=1;whiteSpace=wrap;html=1;arcSize=40;fontColor=#000000;fillColor=#ffffc0;strokeColor=#ff0000;fontSize=15;" parent="1" vertex="1">
          <mxGeometry x="255" y="470" width="230" height="40" as="geometry" />
        </mxCell>
        <mxCell id="qjSV56x-90p1cfjG59y1-30" value="" style="edgeStyle=orthogonalEdgeStyle;html=1;verticalAlign=bottom;endArrow=open;endSize=8;strokeColor=#ff0000;" parent="1" source="qjSV56x-90p1cfjG59y1-29" edge="1">
          <mxGeometry relative="1" as="geometry">
            <mxPoint x="370" y="540" as="targetPoint" />
          </mxGeometry>
        </mxCell>
        <mxCell id="qjSV56x-90p1cfjG59y1-65" style="edgeStyle=none;rounded=1;orthogonalLoop=1;jettySize=auto;html=1;entryX=0.5;entryY=0;entryDx=0;entryDy=0;strokeColor=#FF0000;" parent="1" source="qjSV56x-90p1cfjG59y1-31" target="qjSV56x-90p1cfjG59y1-38" edge="1">
          <mxGeometry relative="1" as="geometry" />
        </mxCell>
        <mxCell id="qjSV56x-90p1cfjG59y1-31" value="Actor chọn sách từ danh sách có sẵn đưa vào hóa đơn" style="rounded=1;whiteSpace=wrap;html=1;arcSize=40;fontColor=#000000;fillColor=#ffffc0;strokeColor=#ff0000;fontSize=15;" parent="1" vertex="1">
          <mxGeometry x="385" y="562" width="125" height="78" as="geometry" />
        </mxCell>
        <mxCell id="qjSV56x-90p1cfjG59y1-38" value="" style="rhombus;whiteSpace=wrap;html=1;fillColor=#ffffc0;strokeColor=#ff0000;" parent="1" vertex="1">
          <mxGeometry x="414" y="670" width="75" height="55" as="geometry" />
        </mxCell>
        <mxCell id="qjSV56x-90p1cfjG59y1-39" value="no" style="edgeStyle=orthogonalEdgeStyle;html=1;align=left;verticalAlign=bottom;endArrow=open;endSize=8;strokeColor=#ff0000;entryX=0.5;entryY=1;entryDx=0;entryDy=0;" parent="1" source="qjSV56x-90p1cfjG59y1-38" target="qjSV56x-90p1cfjG59y1-44" edge="1">
          <mxGeometry x="-1" relative="1" as="geometry">
            <mxPoint x="580" y="590" as="targetPoint" />
            <Array as="points">
              <mxPoint x="580" y="697" />
            </Array>
          </mxGeometry>
        </mxCell>
        <mxCell id="qjSV56x-90p1cfjG59y1-40" value="yes" style="edgeStyle=orthogonalEdgeStyle;html=1;align=left;verticalAlign=top;endArrow=open;endSize=8;strokeColor=#ff0000;" parent="1" source="qjSV56x-90p1cfjG59y1-38" edge="1">
          <mxGeometry x="-1" relative="1" as="geometry">
            <mxPoint x="452" y="840" as="targetPoint" />
          </mxGeometry>
        </mxCell>
        <mxCell id="qjSV56x-90p1cfjG59y1-52" style="edgeStyle=orthogonalEdgeStyle;rounded=1;orthogonalLoop=1;jettySize=auto;html=1;strokeColor=#FF0000;entryX=1;entryY=0.5;entryDx=0;entryDy=0;" parent="1" source="qjSV56x-90p1cfjG59y1-44" target="qjSV56x-90p1cfjG59y1-11" edge="1">
          <mxGeometry relative="1" as="geometry">
            <mxPoint x="450" y="402.5" as="targetPoint" />
            <Array as="points" />
          </mxGeometry>
        </mxCell>
        <mxCell id="qjSV56x-90p1cfjG59y1-44" value="Thông báo sách đã hết" style="rounded=1;whiteSpace=wrap;html=1;arcSize=40;fontColor=#000000;fillColor=#ffffc0;strokeColor=#ff0000;fontSize=15;" parent="1" vertex="1">
          <mxGeometry x="520" y="362.5" width="120" height="45" as="geometry" />
        </mxCell>
        <mxCell id="qjSV56x-90p1cfjG59y1-64" style="rounded=1;orthogonalLoop=1;jettySize=auto;html=1;entryX=0.25;entryY=0;entryDx=0;entryDy=0;strokeColor=#FF0000;" parent="1" source="qjSV56x-90p1cfjG59y1-59" target="qjSV56x-90p1cfjG59y1-31" edge="1">
          <mxGeometry relative="1" as="geometry" />
        </mxCell>
        <mxCell id="qjSV56x-90p1cfjG59y1-59" value="" style="shape=line;html=1;strokeWidth=6;strokeColor=#ff0000;" parent="1" vertex="1">
          <mxGeometry x="270" y="540" width="200" height="5" as="geometry" />
        </mxCell>
        <mxCell id="qjSV56x-90p1cfjG59y1-68" value="Actor chọn nút thêm khách hàng vào hóa đơn" style="rounded=1;whiteSpace=wrap;html=1;arcSize=40;fontColor=#000000;fillColor=#ffffc0;strokeColor=#ff0000;fontSize=15;" parent="1" vertex="1">
          <mxGeometry x="240" y="562" width="120" height="78" as="geometry" />
        </mxCell>
        <mxCell id="qjSV56x-90p1cfjG59y1-69" value="" style="edgeStyle=orthogonalEdgeStyle;html=1;verticalAlign=bottom;endArrow=open;endSize=8;strokeColor=#ff0000;" parent="1" source="qjSV56x-90p1cfjG59y1-68" edge="1">
          <mxGeometry relative="1" as="geometry">
            <mxPoint x="300" y="660" as="targetPoint" />
          </mxGeometry>
        </mxCell>
        <mxCell id="qjSV56x-90p1cfjG59y1-70" style="rounded=1;orthogonalLoop=1;jettySize=auto;html=1;entryX=0.5;entryY=0;entryDx=0;entryDy=0;strokeColor=#FF0000;" parent="1" source="qjSV56x-90p1cfjG59y1-59" target="qjSV56x-90p1cfjG59y1-68" edge="1">
          <mxGeometry relative="1" as="geometry">
            <mxPoint x="387.27272727272725" y="565" as="sourcePoint" />
            <mxPoint x="460" y="590" as="targetPoint" />
          </mxGeometry>
        </mxCell>
        <mxCell id="qjSV56x-90p1cfjG59y1-77" value="no" style="edgeStyle=none;rounded=1;orthogonalLoop=1;jettySize=auto;html=1;entryX=1;entryY=0.5;entryDx=0;entryDy=0;strokeColor=#FF0000;" parent="1" source="qjSV56x-90p1cfjG59y1-71" target="qjSV56x-90p1cfjG59y1-74" edge="1">
          <mxGeometry relative="1" as="geometry" />
        </mxCell>
        <mxCell id="qjSV56x-90p1cfjG59y1-71" value="" style="rhombus;whiteSpace=wrap;html=1;fillColor=#ffffc0;strokeColor=#ff0000;" parent="1" vertex="1">
          <mxGeometry x="260" y="662.5" width="80" height="70" as="geometry" />
        </mxCell>
        <mxCell id="qjSV56x-90p1cfjG59y1-74" value="Actor chọn nút thêm khách hàng" style="rounded=1;whiteSpace=wrap;html=1;arcSize=40;fontColor=#000000;fillColor=#ffffc0;strokeColor=#ff0000;fontSize=15;" parent="1" vertex="1">
          <mxGeometry x="10" y="662.5" width="160" height="60" as="geometry" />
        </mxCell>
        <mxCell id="qjSV56x-90p1cfjG59y1-75" value="" style="edgeStyle=orthogonalEdgeStyle;html=1;verticalAlign=bottom;endArrow=open;endSize=8;strokeColor=#ff0000;entryX=0.5;entryY=0;entryDx=0;entryDy=0;" parent="1" source="qjSV56x-90p1cfjG59y1-74" target="qjSV56x-90p1cfjG59y1-79" edge="1">
          <mxGeometry relative="1" as="geometry">
            <mxPoint x="100" y="770" as="targetPoint" />
          </mxGeometry>
        </mxCell>
        <mxCell id="qjSV56x-90p1cfjG59y1-82" style="edgeStyle=none;rounded=1;orthogonalLoop=1;jettySize=auto;html=1;entryX=0.5;entryY=0;entryDx=0;entryDy=0;strokeColor=#FF0000;" parent="1" source="qjSV56x-90p1cfjG59y1-79" target="qjSV56x-90p1cfjG59y1-80" edge="1">
          <mxGeometry relative="1" as="geometry" />
        </mxCell>
        <mxCell id="qjSV56x-90p1cfjG59y1-79" value="Hệ thống hiển thị form thêm khách hàng" style="rounded=1;whiteSpace=wrap;html=1;arcSize=40;fontColor=#000000;fillColor=#ffffc0;strokeColor=#ff0000;fontSize=15;" parent="1" vertex="1">
          <mxGeometry x="30" y="750" width="120" height="60" as="geometry" />
        </mxCell>
        <mxCell id="qjSV56x-90p1cfjG59y1-85" style="edgeStyle=none;rounded=1;orthogonalLoop=1;jettySize=auto;html=1;entryX=0;entryY=0.5;entryDx=0;entryDy=0;strokeColor=#FF0000;" parent="1" source="qjSV56x-90p1cfjG59y1-80" target="qjSV56x-90p1cfjG59y1-83" edge="1">
          <mxGeometry relative="1" as="geometry" />
        </mxCell>
        <mxCell id="qjSV56x-90p1cfjG59y1-80" value="Actor nhập thông tin khách hàng" style="rounded=1;whiteSpace=wrap;html=1;arcSize=40;fontColor=#000000;fillColor=#ffffc0;strokeColor=#ff0000;fontSize=15;" parent="1" vertex="1">
          <mxGeometry x="30" y="850" width="120" height="40" as="geometry" />
        </mxCell>
        <mxCell id="qjSV56x-90p1cfjG59y1-113" style="edgeStyle=none;rounded=1;orthogonalLoop=1;jettySize=auto;html=1;entryX=0.568;entryY=0.267;entryDx=0;entryDy=0;entryPerimeter=0;strokeColor=#FF0000;fontSize=15;" parent="1" source="qjSV56x-90p1cfjG59y1-86" target="qjSV56x-90p1cfjG59y1-88" edge="1">
          <mxGeometry relative="1" as="geometry" />
        </mxCell>
        <mxCell id="qjSV56x-90p1cfjG59y1-86" value="Hệ thống thêm sách vào hóa đơn&amp;nbsp;" style="rounded=1;whiteSpace=wrap;html=1;arcSize=40;fontColor=#000000;fillColor=#ffffc0;strokeColor=#ff0000;fontSize=15;" parent="1" vertex="1">
          <mxGeometry x="390" y="845" width="130" height="45" as="geometry" />
        </mxCell>
        <mxCell id="qjSV56x-90p1cfjG59y1-114" style="edgeStyle=none;rounded=1;orthogonalLoop=1;jettySize=auto;html=1;strokeColor=#FF0000;fontSize=15;" parent="1" source="qjSV56x-90p1cfjG59y1-88" target="qjSV56x-90p1cfjG59y1-92" edge="1">
          <mxGeometry relative="1" as="geometry" />
        </mxCell>
        <mxCell id="qjSV56x-90p1cfjG59y1-88" value="" style="shape=line;html=1;strokeWidth=6;strokeColor=#ff0000;" parent="1" vertex="1">
          <mxGeometry x="270" y="920" width="230" height="10" as="geometry" />
        </mxCell>
        <mxCell id="qjSV56x-90p1cfjG59y1-115" style="edgeStyle=none;rounded=1;orthogonalLoop=1;jettySize=auto;html=1;entryX=0;entryY=0.5;entryDx=0;entryDy=0;strokeColor=#FF0000;fontSize=15;" parent="1" source="qjSV56x-90p1cfjG59y1-92" target="qjSV56x-90p1cfjG59y1-94" edge="1">
          <mxGeometry relative="1" as="geometry" />
        </mxCell>
        <mxCell id="qjSV56x-90p1cfjG59y1-92" value="Actor chọn nút in hóa đơn" style="rounded=1;whiteSpace=wrap;html=1;arcSize=40;fontColor=#000000;fillColor=#ffffc0;strokeColor=#ff0000;fontSize=15;" parent="1" vertex="1">
          <mxGeometry x="325" y="960" width="115" height="60" as="geometry" />
        </mxCell>
        <mxCell id="qjSV56x-90p1cfjG59y1-117" style="edgeStyle=none;rounded=1;orthogonalLoop=1;jettySize=auto;html=1;entryX=0.5;entryY=1;entryDx=0;entryDy=0;strokeColor=#FF0000;fontSize=15;" parent="1" source="qjSV56x-90p1cfjG59y1-94" target="qjSV56x-90p1cfjG59y1-116" edge="1">
          <mxGeometry relative="1" as="geometry" />
        </mxCell>
        <mxCell id="qjSV56x-90p1cfjG59y1-94" value="Hệ thống lưu trữ lịch sử hóa đơn vào CSDL" style="rounded=1;whiteSpace=wrap;html=1;arcSize=40;fontColor=#000000;fillColor=#ffffc0;strokeColor=#ff0000;fontSize=15;" parent="1" vertex="1">
          <mxGeometry x="590" y="960" width="185" height="60" as="geometry" />
        </mxCell>
        <mxCell id="qjSV56x-90p1cfjG59y1-99" style="edgeStyle=none;rounded=1;orthogonalLoop=1;jettySize=auto;html=1;exitX=0.75;exitY=1;exitDx=0;exitDy=0;strokeColor=#FF0000;" parent="1" source="qjSV56x-90p1cfjG59y1-68" target="qjSV56x-90p1cfjG59y1-68" edge="1">
          <mxGeometry relative="1" as="geometry" />
        </mxCell>
        <mxCell id="qjSV56x-90p1cfjG59y1-112" style="edgeStyle=none;rounded=1;orthogonalLoop=1;jettySize=auto;html=1;entryX=0.455;entryY=0.267;entryDx=0;entryDy=0;entryPerimeter=0;strokeColor=#FF0000;fontSize=15;" parent="1" source="qjSV56x-90p1cfjG59y1-83" target="qjSV56x-90p1cfjG59y1-88" edge="1">
          <mxGeometry relative="1" as="geometry" />
        </mxCell>
        <mxCell id="qjSV56x-90p1cfjG59y1-83" value="hệ thống thêm khách hàng vào hóa đơn" style="rounded=1;whiteSpace=wrap;html=1;arcSize=40;fontColor=#000000;fillColor=#ffffc0;strokeColor=#ff0000;fontSize=15;" parent="1" vertex="1">
          <mxGeometry x="222.5" y="847.5" width="155" height="45" as="geometry" />
        </mxCell>
        <mxCell id="qjSV56x-90p1cfjG59y1-100" value="yes" style="edgeStyle=orthogonalEdgeStyle;html=1;align=left;verticalAlign=top;endArrow=open;endSize=8;strokeColor=#ff0000;" parent="1" source="qjSV56x-90p1cfjG59y1-71" target="qjSV56x-90p1cfjG59y1-83" edge="1">
          <mxGeometry x="-0.6957" y="20" relative="1" as="geometry">
            <mxPoint x="300" y="890" as="targetPoint" />
            <mxPoint x="300" y="719.9999999999998" as="sourcePoint" />
            <Array as="points">
              <mxPoint x="300" y="790" />
              <mxPoint x="300" y="790" />
            </Array>
            <mxPoint as="offset" />
          </mxGeometry>
        </mxCell>
        <mxCell id="qjSV56x-90p1cfjG59y1-106" style="edgeStyle=none;rounded=1;orthogonalLoop=1;jettySize=auto;html=1;entryX=0.5;entryY=0;entryDx=0;entryDy=0;strokeColor=#FF0000;" parent="1" source="qjSV56x-90p1cfjG59y1-94" target="qjSV56x-90p1cfjG59y1-94" edge="1">
          <mxGeometry relative="1" as="geometry" />
        </mxCell>
        <mxCell id="qjSV56x-90p1cfjG59y1-109" value="&lt;font style=&quot;font-size: 15px&quot;&gt;Tìm thấy sách ?&lt;/font&gt;" style="text;html=1;strokeColor=none;fillColor=none;align=center;verticalAlign=middle;whiteSpace=wrap;rounded=0;" parent="1" vertex="1">
          <mxGeometry x="240" y="245" width="80" height="20" as="geometry" />
        </mxCell>
        <mxCell id="qjSV56x-90p1cfjG59y1-116" value="" style="ellipse;html=1;shape=endState;fillColor=#000000;strokeColor=#ff0000;fontSize=15;" parent="1" vertex="1">
          <mxGeometry x="667" y="819" width="30" height="30" as="geometry" />
        </mxCell>
        <mxCell id="aIUQUNANYLxbSYOlphwK-1" value="Sách còn trong kho?&lt;br&gt;" style="text;html=1;strokeColor=none;fillColor=none;align=center;verticalAlign=middle;whiteSpace=wrap;rounded=0;fontSize=15;" parent="1" vertex="1">
          <mxGeometry x="475" y="722.5" width="90" height="20" as="geometry" />
        </mxCell>
        <mxCell id="aIUQUNANYLxbSYOlphwK-3" value="Khách hàng đã có trong hệ thống" style="text;html=1;strokeColor=none;fillColor=none;align=center;verticalAlign=middle;whiteSpace=wrap;rounded=0;fontSize=15;" parent="1" vertex="1">
          <mxGeometry x="190" y="732.5" width="90" height="20" as="geometry" />
        </mxCell>
        <mxCell id="BxB7EzJWPoqpXeamAMvf-7" style="edgeStyle=orthogonalEdgeStyle;rounded=0;orthogonalLoop=1;jettySize=auto;html=1;entryX=0.5;entryY=0;entryDx=0;entryDy=0;strokeColor=#FF3333;" edge="1" parent="1" source="BxB7EzJWPoqpXeamAMvf-1" target="BxB7EzJWPoqpXeamAMvf-5">
          <mxGeometry relative="1" as="geometry" />
        </mxCell>
        <mxCell id="BxB7EzJWPoqpXeamAMvf-1" value="&lt;font style=&quot;font-size: 15px&quot;&gt;Actor thực hiện chức năng đăng nhập&amp;nbsp;&lt;/font&gt;" style="rounded=1;whiteSpace=wrap;html=1;arcSize=40;fontColor=#000000;fillColor=#ffffc0;strokeColor=#ff0000;" vertex="1" parent="1">
          <mxGeometry x="263.75" y="-150" width="237.5" height="50" as="geometry" />
        </mxCell>
        <mxCell id="BxB7EzJWPoqpXeamAMvf-3" style="edgeStyle=orthogonalEdgeStyle;rounded=0;orthogonalLoop=1;jettySize=auto;html=1;exitX=1;exitY=1;exitDx=0;exitDy=0;entryX=1;entryY=0;entryDx=0;entryDy=0;" edge="1" parent="1" source="qjSV56x-90p1cfjG59y1-2" target="qjSV56x-90p1cfjG59y1-2">
          <mxGeometry relative="1" as="geometry" />
        </mxCell>
        <mxCell id="BxB7EzJWPoqpXeamAMvf-5" value="&lt;font style=&quot;font-size: 15px&quot;&gt;Hệ thống hiện ra giao diện tổng chức năng của actor&lt;/font&gt;" style="rounded=1;whiteSpace=wrap;html=1;arcSize=40;fontColor=#000000;fillColor=#ffffc0;strokeColor=#ff0000;" vertex="1" parent="1">
          <mxGeometry x="270" y="-70" width="227" height="70" as="geometry" />
        </mxCell>
        <mxCell id="BxB7EzJWPoqpXeamAMvf-6" value="" style="edgeStyle=orthogonalEdgeStyle;html=1;verticalAlign=bottom;endArrow=open;endSize=8;strokeColor=#ff0000;" edge="1" source="BxB7EzJWPoqpXeamAMvf-5" parent="1">
          <mxGeometry relative="1" as="geometry">
            <mxPoint x="383" y="50" as="targetPoint" />
          </mxGeometry>
        </mxCell>
        <mxCell id="BxB7EzJWPoqpXeamAMvf-12" style="edgeStyle=orthogonalEdgeStyle;rounded=0;orthogonalLoop=1;jettySize=auto;html=1;entryX=0;entryY=0.5;entryDx=0;entryDy=0;strokeColor=#FF3333;" edge="1" parent="1" source="BxB7EzJWPoqpXeamAMvf-8" target="BxB7EzJWPoqpXeamAMvf-11">
          <mxGeometry relative="1" as="geometry" />
        </mxCell>
        <mxCell id="BxB7EzJWPoqpXeamAMvf-8" value="&lt;font style=&quot;font-size: 15px&quot;&gt;Actor chọn Bán hàng&lt;/font&gt;" style="rounded=1;whiteSpace=wrap;html=1;arcSize=40;fontColor=#000000;fillColor=#ffffc0;strokeColor=#ff0000;" vertex="1" parent="1">
          <mxGeometry x="320" y="50" width="120" height="40" as="geometry" />
        </mxCell>
        <mxCell id="BxB7EzJWPoqpXeamAMvf-13" style="rounded=0;orthogonalLoop=1;jettySize=auto;html=1;exitX=0;exitY=1;exitDx=0;exitDy=0;entryX=1;entryY=0;entryDx=0;entryDy=0;strokeColor=#FF3333;" edge="1" parent="1" source="BxB7EzJWPoqpXeamAMvf-11" target="qjSV56x-90p1cfjG59y1-8">
          <mxGeometry relative="1" as="geometry" />
        </mxCell>
        <mxCell id="BxB7EzJWPoqpXeamAMvf-11" value="&lt;font style=&quot;font-size: 15px&quot;&gt;Hệ thống hiện ra giao diện chức năng Bán hàng&lt;/font&gt;" style="rounded=1;whiteSpace=wrap;html=1;arcSize=40;fontColor=#000000;fillColor=#ffffc0;strokeColor=#ff0000;" vertex="1" parent="1">
          <mxGeometry x="501.25" y="50" width="258.75" height="40" as="geometry" />
        </mxCell>
      </root>
    </mxGraphModel>
  </diagram>
</mxfile>
